<svg xmlns="http://www.w3.org/2000/svg" width="77" height="46" viewBox="0 0 77 46">
  <g id="Logo" transform="translate(-81 -32)">
    <g id="Rectangle_50" data-name="Rectangle 50" transform="translate(81 32)" fill="none" stroke="#fff" stroke-width="3">
      <rect width="52" height="46" rx="5" stroke="none"/>
      <rect x="1.5" y="1.5" width="49" height="43" rx="3.5" fill="none"/>
    </g>
    <path id="Path_94" data-name="Path 94" d="M9.27.39a6.371,6.371,0,0,0,6.06-3.66v1.74a1.359,1.359,0,0,0,1.5,1.5h.36a1.359,1.359,0,0,0,1.5-1.5V-21.24a1.359,1.359,0,0,0-1.5-1.5h-.36a1.359,1.359,0,0,0-1.5,1.5v7.44a6.317,6.317,0,0,0-6.09-3.69c-4.26,0-7.86,3-7.86,8.91C1.38-2.64,5.01.39,9.27.39Zm.84-2.88c-3.21,0-5.37-2.28-5.37-6.09,0-3.78,2.16-6.06,5.31-6.06,3.21,0,5.37,2.31,5.37,6.06C15.42-4.8,13.29-2.49,10.11-2.49ZM32.25.39c4.2,0,7.86-3.03,7.86-8.97,0-5.91-3.66-8.91-7.89-8.91a6.3,6.3,0,0,0-6.06,3.66v-7.41a1.359,1.359,0,0,0-1.5-1.5H24.3a1.359,1.359,0,0,0-1.5,1.5V-1.53a1.359,1.359,0,0,0,1.5,1.5h.36a1.359,1.359,0,0,0,1.5-1.5V-3.27A6.385,6.385,0,0,0,32.25.39Zm-.81-2.88c-3.21,0-5.37-2.28-5.37-6.09,0-3.78,2.16-6.06,5.31-6.06,3.21,0,5.37,2.31,5.37,6.06C36.75-4.8,34.62-2.49,31.44-2.49Z" transform="translate(86 67)" fill="#fff"/>
    <rect id="Rectangle_51" data-name="Rectangle 51" width="20" height="3" rx="1.5" transform="translate(158 78) rotate(180)" fill="#fff"/>
  </g>
</svg>
